<svg width="14" height="14" viewBox="0 0 14 14" fill="none" xmlns="http://www.w3.org/2000/svg">
<path fill-rule="evenodd" clip-rule="evenodd" d="M12.2501 2.1875C12.2501 2.07147 12.204 1.96019 12.1219 1.87814C12.0399 1.79609 11.9286 1.75 11.8126 1.75H6.56256C6.44653 1.75 6.33525 1.79609 6.25321 1.87814C6.17116 1.96019 6.12506 2.07147 6.12506 2.1875C6.12506 2.30353 6.17116 2.41481 6.25321 2.49686C6.33525 2.57891 6.44653 2.625 6.56256 2.625H10.7564L1.87781 11.5028C1.83714 11.5434 1.80487 11.5917 1.78286 11.6449C1.76084 11.698 1.74951 11.755 1.74951 11.8125C1.74951 11.87 1.76084 11.927 1.78286 11.9801C1.80487 12.0333 1.83714 12.0816 1.87781 12.1222C1.91849 12.1629 1.96678 12.1952 2.01993 12.2172C2.07308 12.2392 2.13004 12.2506 2.18756 12.2506C2.24509 12.2506 2.30205 12.2392 2.3552 12.2172C2.40835 12.1952 2.45664 12.1629 2.49731 12.1222L11.3751 3.24363V7.4375C11.3751 7.55353 11.4212 7.66481 11.5032 7.74686C11.5853 7.82891 11.6965 7.875 11.8126 7.875C11.9286 7.875 12.0399 7.82891 12.1219 7.74686C12.204 7.66481 12.2501 7.55353 12.2501 7.4375V2.1875Z" fill="#4285F4" stroke="#4285F4" stroke-width="0.456635"/>
</svg>
