<svg width="24" height="24" viewBox="0 0 24 24" fill="none" xmlns="http://www.w3.org/2000/svg">
<path d="M7 5.995C7 5.445 7.446 5 7.995 5H16.005C16.2689 5 16.522 5.10483 16.7086 5.29143C16.8952 5.47803 17 5.73111 17 5.995C17 6.25889 16.8952 6.51197 16.7086 6.69857C16.522 6.88517 16.2689 6.99 16.005 6.99H7.995C7.73111 6.99 7.47803 6.88517 7.29143 6.69857C7.10483 6.51197 7 6.25889 7 5.995Z" fill="#081637"/>
<path d="M2 11.9852C2 11.4352 2.446 10.9902 2.995 10.9902H21.005C21.2689 10.9902 21.522 11.0951 21.7086 11.2817C21.8952 11.4683 22 11.7213 22 11.9852C22 12.2491 21.8952 12.5022 21.7086 12.6888C21.522 12.8754 21.2689 12.9802 21.005 12.9802H2.995C2.73111 12.9802 2.47803 12.8754 2.29143 12.6888C2.10483 12.5022 2 12.2491 2 11.9852Z" fill="#081637"/>
<path d="M7.71071 16.98C7.52222 16.98 7.34145 17.0848 7.20816 17.2714C7.07488 17.458 7 17.7111 7 17.975C7 18.2389 7.07488 18.492 7.20816 18.6786C7.34145 18.8651 7.52222 18.97 7.71071 18.97H16.2893C16.4778 18.97 16.6586 18.8651 16.7918 18.6786C16.9251 18.492 17 18.2389 17 17.975C17 17.7111 16.9251 17.458 16.7918 17.2714C16.6586 17.0848 16.4778 16.98 16.2893 16.98H7.71071Z" fill="#081637"/>
</svg>
