<svg width="41" height="41" viewBox="0 0 41 41" fill="none" xmlns="http://www.w3.org/2000/svg">
<path d="M28.139 34.1664H7.00352C6.73167 34.1664 6.47096 34.0584 6.27873 33.8662C6.08651 33.6739 5.97852 33.4132 5.97852 33.1414V16.3997C5.97852 16.1279 6.08651 15.8671 6.27873 15.6749C6.47096 15.4827 6.73167 15.3747 7.00352 15.3747H11.7322C12.3222 15.3747 12.9022 15.2219 13.4156 14.9312C13.929 14.6405 14.3584 14.2218 14.662 13.7159L19.2916 5.99937C19.6407 5.41658 20.1908 4.98143 20.8383 4.77578C21.4858 4.57013 22.1861 4.60814 22.8076 4.88266C23.429 5.15718 23.9288 5.64929 24.2128 6.26645C24.4968 6.88361 24.5456 7.58328 24.3499 8.23387L22.604 14.0559C22.5583 14.2088 22.5488 14.3703 22.5765 14.5275C22.6042 14.6846 22.6682 14.8332 22.7634 14.9613C22.8587 15.0894 22.9825 15.1934 23.1251 15.2652C23.2676 15.337 23.425 15.3745 23.5846 15.3747H31.4002C31.9256 15.3746 32.4439 15.4957 32.9149 15.7285C33.3859 15.9613 33.7969 16.2996 34.1158 16.717C34.4348 17.1345 34.6532 17.6199 34.7541 18.1355C34.8549 18.6511 34.8355 19.1831 34.6973 19.69L31.4344 31.6483C31.2374 32.371 30.8083 33.009 30.2131 33.464C29.618 33.919 28.8899 34.1658 28.1407 34.1664H28.139Z" stroke="#22BD96" stroke-width="2.5625" stroke-linecap="round"/>
<path d="M11.958 34.1662V15.3745" stroke="#22BD96" stroke-width="2.5625" stroke-linecap="round" stroke-linejoin="round"/>
</svg>
