<svg width="19" height="19" viewBox="0 0 19 19" fill="none" xmlns="http://www.w3.org/2000/svg">
<g clip-path="url(#clip0_0_2333)">
<path d="M4.66036 15.5445C4.63473 15.6542 4.63427 15.7683 4.65902 15.8783C4.68376 15.9882 4.73308 16.0912 4.80326 16.1793C4.87344 16.2675 4.96268 16.3387 5.06427 16.3874C5.16586 16.4362 5.27718 16.4614 5.38988 16.461C5.53768 16.4611 5.68218 16.4173 5.80514 16.3353L9.87921 13.6193L13.9533 16.3353C14.0807 16.42 14.231 16.4635 14.384 16.4602C14.5369 16.4568 14.6852 16.4067 14.8088 16.3166C14.9324 16.2264 15.0255 16.1006 15.0754 15.956C15.1254 15.8114 15.1299 15.655 15.0883 15.5078L13.7198 10.7192L17.1138 7.66493C17.2225 7.56706 17.3001 7.43947 17.3371 7.29794C17.374 7.15641 17.3687 7.00716 17.3217 6.86863C17.2747 6.73011 17.1882 6.60839 17.0728 6.51853C16.9574 6.42866 16.8181 6.3746 16.6723 6.36303L12.4067 6.02333L10.5608 1.93729C10.5021 1.80569 10.4064 1.69391 10.2855 1.61545C10.1646 1.53699 10.0236 1.4952 9.87946 1.49512C9.73532 1.49504 9.59424 1.53668 9.47325 1.615C9.35225 1.69333 9.25651 1.80501 9.19758 1.93654L7.35172 6.02333L3.0861 6.36228C2.94279 6.37363 2.80577 6.42603 2.69146 6.51322C2.57714 6.6004 2.49037 6.71867 2.44151 6.85388C2.39265 6.98909 2.38378 7.13552 2.41596 7.27564C2.44813 7.41576 2.52 7.54364 2.62296 7.64398L5.77596 10.7169L4.66036 15.5445ZM9.87921 4.06224L11.4071 7.44496L11.847 7.48012H11.8478L14.8197 7.71581L12.3723 9.91858L12.3715 9.92007L12.0251 10.2313L12.1531 10.678V10.6803L13.0906 13.9612L9.87921 11.8206V4.06224Z" fill="#FAA307"/>
</g>
<defs>
<clipPath id="clip0_0_2333">
<rect width="18.3718" height="18.3718" fill="white" transform="translate(0.486328)"/>
</clipPath>
</defs>
</svg>
