<svg width="41" height="41" viewBox="0 0 41 41" fill="none" xmlns="http://www.w3.org/2000/svg">
<path d="M26.9062 3.88347L26.0658 4.80469C24.1836 6.87647 22.632 7.80281 21.3405 8.40884C20.049 9.01359 18.9638 9.19425 17.8978 10.0104C16.7613 10.8817 15.1098 12.5524 14.4141 15.5352C12.9227 15.8606 11.8311 16.432 10.9701 17.1764C10.1193 17.9119 9.47869 18.7485 8.68944 19.6595C8.68303 19.6697 8.69328 19.689 8.68944 19.6992C7.55681 21.001 6.56641 22.4027 4.64453 23.1432L3.84375 23.4635V37.1562H28.2682C29.6686 37.0807 30.6398 36.1107 31.2305 35.1537C31.8198 34.1978 32.1466 33.1626 32.3118 32.3118C32.7372 30.144 33.5124 23.903 33.5124 23.903L33.5534 23.7838V23.6634C33.5124 22.7973 33.1562 22.0618 32.7116 21.3802L34.153 17.097L36.4362 13.653L37.0768 12.7318L36.235 11.972L27.8275 4.68425L26.9062 3.88347ZM26.987 7.40691L33.6725 13.2135L31.9108 15.8145L31.7917 15.9362L31.7507 16.1361L30.5898 19.5788C29.9838 19.3289 29.3598 19.1534 28.668 19.179H28.5872L20.5 19.2188H19.2188V24.1836C19.0394 25.5802 18.2629 26.1208 17.2969 26.5065C16.9766 26.6359 16.9368 26.5654 16.6562 26.6257V19.1803C16.4461 14.4307 18.1374 13.0636 19.4596 12.0527C19.8248 11.7721 20.8946 11.448 22.4219 10.7318C23.698 10.1308 25.2842 9.05459 26.987 7.40819V7.40691ZM14.1745 18.418C14.1693 18.7088 14.0784 18.9138 14.0938 19.2188V29.4688H15.375C15.375 29.4688 16.7459 29.4534 18.2181 28.8678C19.689 28.2823 21.4661 26.9114 21.7812 24.5039V21.7812L28.668 21.7415H28.7077C29.2701 21.7107 29.8219 21.904 30.2421 22.2791C30.6623 22.6542 30.9168 23.1805 30.9499 23.7428C30.9447 23.7633 30.8858 24.2387 30.8704 24.3438H25.625V26.9062H30.5501C30.4143 27.8967 30.29 28.5181 30.1491 29.4688H25.625V32.0312H29.7493C29.5979 32.6511 29.3548 33.2449 29.028 33.793C28.6782 34.3631 28.3771 34.5784 28.1081 34.5938H6.40625V25.0241C8.48316 23.9222 9.77466 22.3373 10.61 21.3815C11.4762 20.3898 12.0707 19.639 12.6523 19.1393C13.0329 18.8139 13.6287 18.6281 14.1745 18.418Z" fill="#FE7804"/>
</svg>
