<svg width="21" height="26" viewBox="0 0 21 26" fill="none" xmlns="http://www.w3.org/2000/svg">
<path d="M10.5 14.201C12.4675 14.201 14.0625 12.589 14.0625 10.6005C14.0625 8.61201 12.4675 7 10.5 7C8.53249 7 6.9375 8.61201 6.9375 10.6005C6.9375 12.589 8.53249 14.201 10.5 14.201Z" stroke="#585B6C" stroke-width="2" stroke-linecap="round" stroke-linejoin="round"/>
<path d="M10.5 1C7.98044 1 5.56408 2.01143 3.78249 3.81178C2.00089 5.61212 1 8.05392 1 10.6C1 12.8704 1.47737 14.356 2.78125 16L10.5 25L18.2188 16C19.5226 14.356 20 12.8704 20 10.6C20 8.05392 18.9991 5.61212 17.2175 3.81178C15.4359 2.01143 13.0196 1 10.5 1V1Z" stroke="#585B6C" stroke-width="2" stroke-linecap="round" stroke-linejoin="round"/>
</svg>
