<svg width="29" height="29" viewBox="0 0 29 29" fill="none" xmlns="http://www.w3.org/2000/svg">
<path d="M9.0625 16.3125H16.3125V18.125H9.0625V16.3125Z" fill="#585B6C"/>
<path d="M9.0625 11.7812H19.9375V13.5938H9.0625V11.7812Z" fill="#585B6C"/>
<path d="M9.0625 20.8438H13.5938V22.6562H9.0625V20.8438Z" fill="#585B6C"/>
<path d="M22.6562 4.53125H19.9375V3.625C19.9375 3.1443 19.7465 2.68328 19.4066 2.34337C19.0667 2.00346 18.6057 1.8125 18.125 1.8125H10.875C10.3943 1.8125 9.93328 2.00346 9.59337 2.34337C9.25346 2.68328 9.0625 3.1443 9.0625 3.625V4.53125H6.34375C5.86305 4.53125 5.40203 4.72221 5.06212 5.06212C4.72221 5.40203 4.53125 5.86305 4.53125 6.34375V25.375C4.53125 25.8557 4.72221 26.3167 5.06212 26.6566C5.40203 26.9965 5.86305 27.1875 6.34375 27.1875H22.6562C23.137 27.1875 23.598 26.9965 23.9379 26.6566C24.2778 26.3167 24.4688 25.8557 24.4688 25.375V6.34375C24.4688 5.86305 24.2778 5.40203 23.9379 5.06212C23.598 4.72221 23.137 4.53125 22.6562 4.53125ZM10.875 3.625H18.125V7.25H10.875V3.625ZM22.6562 25.375H6.34375V6.34375H9.0625V9.0625H19.9375V6.34375H22.6562V25.375Z" fill="#585B6C"/>
</svg>
