<svg width="19" height="19" viewBox="0 0 19 19" fill="none" xmlns="http://www.w3.org/2000/svg">
<path d="M8.47776 2.01532C8.72272 1.36924 9.64973 1.36924 9.89545 2.01532L11.48 6.40465C11.591 6.69554 11.8735 6.88921 12.1889 6.88921H16.0829C16.8025 6.88921 17.1163 7.78483 16.5506 8.22346L13.7796 10.7167C13.6554 10.8121 13.5647 10.9444 13.5204 11.0946C13.4762 11.2447 13.4806 11.4051 13.5331 11.5526L14.5451 15.8416C14.7915 16.5306 13.9939 17.1223 13.3907 16.6982L9.62676 14.3099C9.49786 14.2193 9.34415 14.1707 9.18661 14.1707C9.02906 14.1707 8.87535 14.2193 8.74645 14.3099L4.98252 16.6982C4.38008 17.1223 3.58167 16.5298 3.82816 15.8416L4.84014 11.5526C4.89264 11.4051 4.89706 11.2447 4.85278 11.0946C4.80849 10.9444 4.71778 10.8121 4.59365 10.7167L1.82257 8.22346C1.25611 7.78483 1.57149 6.88921 2.28952 6.88921H6.18358C6.3369 6.88972 6.48676 6.84366 6.61334 6.75714C6.73992 6.67061 6.83724 6.5477 6.89243 6.40465L8.47699 2.01532H8.47776Z" fill="#FAA307"/>
</svg>
