<svg width="88" height="52" viewBox="0 0 88 52" fill="none" xmlns="http://www.w3.org/2000/svg">
<path d="M5.46457 47.266C4.68391 47.266 4.01776 47.1775 3.4661 47.0006C2.92484 46.8132 2.47207 46.5738 2.10776 46.2824C1.75387 45.9909 1.46763 45.6839 1.24904 45.3612C1.04087 45.0385 0.884739 44.7315 0.780652 44.44C0.686974 44.1486 0.624522 43.9144 0.593296 43.7374C0.56207 43.5501 0.546457 43.4564 0.546457 43.4564H3.27874C3.27874 43.4564 3.29956 43.5397 3.34119 43.7062C3.38283 43.8623 3.47651 44.0445 3.62223 44.2527C3.77836 44.4608 4.00735 44.6482 4.3092 44.8147C4.62146 44.9709 5.03781 45.0489 5.55825 45.0489C6.20358 45.0489 6.66677 44.9188 6.94781 44.6586C7.23925 44.3984 7.38497 44.1017 7.38497 43.7687C7.38497 43.4668 7.27568 43.2274 7.0571 43.0505C6.84892 42.8735 6.50544 42.7382 6.02664 42.6445L4.48094 42.3791C3.83561 42.2646 3.2267 42.0825 2.65422 41.8327C2.09215 41.5828 1.63417 41.2289 1.28027 40.771C0.936783 40.313 0.765039 39.7197 0.765039 38.9911C0.765039 38.2729 0.941987 37.6484 1.29588 37.1175C1.66019 36.5763 2.17542 36.1547 2.84158 35.8529C3.50773 35.551 4.29359 35.4001 5.19915 35.4001C5.90694 35.4001 6.51064 35.4885 7.01026 35.6655C7.50988 35.832 7.92622 36.0506 8.2593 36.3212C8.59238 36.5815 8.8578 36.8625 9.05557 37.1644C9.26374 37.4558 9.41467 37.7368 9.50835 38.0075C9.61243 38.2781 9.68009 38.4967 9.71132 38.6632C9.74254 38.8297 9.75816 38.913 9.75816 38.913H7.08832C7.08832 38.913 7.06751 38.8506 7.02587 38.7257C6.99465 38.5903 6.91138 38.4394 6.77606 38.2729C6.65116 38.0959 6.4586 37.9398 6.19838 37.8045C5.93816 37.6692 5.58427 37.6015 5.13669 37.6015C4.51217 37.6015 4.0698 37.7368 3.80958 38.0075C3.54937 38.2677 3.41926 38.5435 3.41926 38.8349C3.41926 39.1576 3.55978 39.4022 3.84081 39.5688C4.13225 39.7353 4.49656 39.8602 4.93372 39.9435L6.57309 40.2245C7.20802 40.339 7.79091 40.5316 8.32176 40.8022C8.8526 41.0728 9.27936 41.4371 9.60203 41.8951C9.92469 42.3531 10.086 42.9204 10.086 43.5969C10.086 44.2943 9.90388 44.924 9.53957 45.4861C9.18568 46.0378 8.66524 46.4749 7.97827 46.7976C7.29129 47.1099 6.45339 47.266 5.46457 47.266ZM15.1877 47.266C14.2509 47.266 13.4547 47.0682 12.7989 46.6727C12.1432 46.2772 11.6383 45.7515 11.2845 45.0958C10.941 44.44 10.7692 43.7322 10.7692 42.9724C10.7692 42.2126 10.941 41.5048 11.2845 40.849C11.6383 40.1933 12.1432 39.6676 12.7989 39.2721C13.4547 38.8766 14.2509 38.6788 15.1877 38.6788C16.1349 38.6788 16.9364 38.8766 17.5921 39.2721C18.2479 39.6676 18.7475 40.1933 19.091 40.849C19.4449 41.5048 19.6218 42.2126 19.6218 42.9724C19.6218 43.7322 19.4449 44.44 19.091 45.0958C18.7475 45.7515 18.2479 46.2772 17.5921 46.6727C16.9364 47.0682 16.1349 47.266 15.1877 47.266ZM15.1877 45.1114C15.7394 45.1114 16.1661 44.9032 16.468 44.4869C16.7802 44.0601 16.9364 43.5553 16.9364 42.9724C16.9364 42.3895 16.7802 41.8899 16.468 41.4736C16.1661 41.0468 15.7394 40.8334 15.1877 40.8334C14.6465 40.8334 14.2197 41.0468 13.9074 41.4736C13.5952 41.8899 13.4391 42.3895 13.4391 42.9724C13.4391 43.5553 13.5952 44.0601 13.9074 44.4869C14.2197 44.9032 14.6465 45.1114 15.1877 45.1114ZM20.7034 47.1099V35.2439H23.3732V47.1099H20.7034ZM28.0418 38.6788C28.583 38.6788 29.0202 38.7673 29.3533 38.9442C29.6968 39.1212 29.9518 39.3033 30.1183 39.4907C30.2953 39.6676 30.3941 39.7769 30.415 39.8186H30.5399V38.8349H33.2097V47.1099H30.5399V46.1262H30.415C30.3941 46.1679 30.2953 46.2824 30.1183 46.4697C29.9518 46.6571 29.6968 46.8392 29.3533 47.0162C29.0202 47.1827 28.583 47.266 28.0418 47.266C27.4381 47.266 26.9124 47.1463 26.4648 46.9069C26.0173 46.6571 25.6426 46.3292 25.3407 45.9233C25.0389 45.5069 24.8151 45.0437 24.6693 44.5337C24.5236 44.0237 24.4508 43.5032 24.4508 42.9724C24.4508 42.4416 24.5236 41.9211 24.6693 41.4111C24.8151 40.9011 25.0389 40.4431 25.3407 40.0372C25.6426 39.6208 26.0173 39.2929 26.4648 39.0535C26.9124 38.8037 27.4381 38.6788 28.0418 38.6788ZM28.8849 40.8178C28.4998 40.8178 28.1771 40.9271 27.9169 41.1457C27.6566 41.3539 27.4641 41.6245 27.3392 41.9576C27.2143 42.2802 27.1518 42.6185 27.1518 42.9724C27.1518 43.3263 27.2143 43.6698 27.3392 44.0029C27.4641 44.3255 27.6566 44.5962 27.9169 44.8147C28.1771 45.0229 28.4998 45.127 28.8849 45.127C29.27 45.127 29.5875 45.0229 29.8373 44.8147C30.0975 44.5962 30.29 44.3255 30.415 44.0029C30.5503 43.6698 30.6179 43.3263 30.6179 42.9724C30.6179 42.6185 30.5503 42.2802 30.415 41.9576C30.29 41.6245 30.0975 41.3539 29.8373 41.1457C29.5875 40.9271 29.27 40.8178 28.8849 40.8178ZM34.3508 47.1099V38.8349H36.9894V40.084H37.0831C37.1663 39.8654 37.286 39.652 37.4422 39.4439C37.6087 39.2253 37.8377 39.0431 38.1291 38.8974C38.4206 38.7517 38.8057 38.6788 39.2845 38.6788C39.5135 38.6788 39.6956 38.6944 39.831 38.7257C39.9663 38.7569 40.0339 38.7725 40.0339 38.7725V41.4111C40.0339 41.4111 39.9611 41.3955 39.8153 41.3643C39.6696 41.333 39.4667 41.3174 39.2064 41.3174C38.4674 41.3174 37.9158 41.5152 37.5515 41.9107C37.1976 42.3062 37.0206 42.9516 37.0206 43.8467V47.1099H34.3508ZM40.8522 47.1099V35.5562H44.5056L46.8944 41.1769L49.3769 35.5562H52.9054V47.1099H50.2356V39.7249L48.1278 44.4869H45.6297L43.522 39.6937V47.1099H40.8522ZM58.3166 47.266C57.5775 47.266 56.9374 47.1463 56.3962 46.9069C55.8549 46.6571 55.4021 46.3292 55.0378 45.9233C54.6839 45.5069 54.4185 45.0437 54.2416 44.5337C54.075 44.0237 53.9918 43.498 53.9918 42.9568C53.9918 42.4364 54.075 41.9211 54.2416 41.4111C54.4081 40.9011 54.6631 40.4431 55.0066 40.0372C55.3501 39.6208 55.7873 39.2929 56.3181 39.0535C56.8593 38.8037 57.4995 38.6788 58.2385 38.6788C59.0296 38.6788 59.7217 38.8506 60.315 39.194C60.9187 39.5271 61.3871 40.0215 61.7202 40.6773C62.0637 41.3226 62.2354 42.1085 62.2354 43.0349V43.6594H56.6772C56.7084 44.0861 56.8593 44.4608 57.13 44.7835C57.411 45.0958 57.8065 45.2519 58.3166 45.2519C58.7017 45.2519 58.9931 45.1843 59.1909 45.0489C59.3991 44.9032 59.5396 44.7575 59.6124 44.6118C59.6853 44.4661 59.7217 44.3932 59.7217 44.3932H62.173C62.173 44.3932 62.147 44.4921 62.0949 44.6898C62.0429 44.8772 61.944 45.1166 61.7983 45.408C61.6526 45.6891 61.4392 45.9753 61.1581 46.2668C60.8771 46.5478 60.5024 46.7872 60.034 46.985C59.576 47.1723 59.0035 47.266 58.3166 47.266ZM56.6616 42.1137H59.6749C59.6541 41.6245 59.5032 41.255 59.2221 41.0052C58.9515 40.7554 58.608 40.6304 58.1917 40.6304C57.7857 40.6304 57.437 40.7554 57.1456 41.0052C56.8646 41.255 56.7032 41.6245 56.6616 42.1137ZM63.1599 47.1099V38.8349H65.8297V40.0059H65.9078C66.0119 39.8394 66.1524 39.652 66.3294 39.4439C66.5167 39.2357 66.7613 39.0587 67.0632 38.913C67.3754 38.7569 67.7605 38.6788 68.2185 38.6788C68.8847 38.6788 69.4155 38.8297 69.8111 39.1316C70.217 39.4334 70.5084 39.8186 70.6854 40.287C70.8623 40.7449 70.9508 41.2185 70.9508 41.7077V47.1099H68.281V42.2074C68.281 41.8535 68.1873 41.5412 67.9999 41.2706C67.8126 40.9895 67.5055 40.849 67.0788 40.849C66.6104 40.849 66.2825 41.0052 66.0952 41.3174C65.9182 41.6193 65.8297 41.9524 65.8297 42.3167V47.1099H63.1599ZM76.0019 47.266C75.2941 47.266 74.732 47.1567 74.3157 46.9381C73.9097 46.7195 73.6131 46.4489 73.4257 46.1262C73.2384 45.7932 73.1187 45.4601 73.0666 45.127C73.0146 44.7835 72.9886 44.4921 72.9886 44.2527V40.9583H71.6146V38.8349H72.9886V36.7896H75.6584V38.8349H77.3446V40.9583H75.6584V44.1746C75.6584 44.4869 75.7417 44.7367 75.9082 44.924C76.0852 45.101 76.3818 45.1895 76.7981 45.1895C76.9751 45.1895 77.1312 45.179 77.2665 45.1582C77.4019 45.127 77.4695 45.1114 77.4695 45.1114V47.1099C77.4695 47.1099 77.3186 47.1359 77.0167 47.1879C76.7253 47.24 76.387 47.266 76.0019 47.266ZM82.5516 47.266C81.8125 47.266 81.1724 47.1463 80.6312 46.9069C80.0899 46.6571 79.6371 46.3292 79.2728 45.9233C78.9189 45.5069 78.6535 45.0437 78.4766 44.5337C78.31 44.0237 78.2267 43.498 78.2267 42.9568C78.2267 42.4364 78.31 41.9211 78.4766 41.4111C78.6431 40.9011 78.8981 40.4431 79.2416 40.0372C79.5851 39.6208 80.0222 39.2929 80.5531 39.0535C81.0943 38.8037 81.7345 38.6788 82.4735 38.6788C83.2646 38.6788 83.9567 38.8506 84.55 39.194C85.1537 39.5271 85.6221 40.0215 85.9552 40.6773C86.2987 41.3226 86.4704 42.1085 86.4704 43.0349V43.6594H80.9122C80.9434 44.0861 81.0943 44.4608 81.365 44.7835C81.646 45.0958 82.0415 45.2519 82.5516 45.2519C82.9367 45.2519 83.2281 45.1843 83.4259 45.0489C83.6341 44.9032 83.7746 44.7575 83.8474 44.6118C83.9203 44.4661 83.9567 44.3932 83.9567 44.3932H86.408C86.408 44.3932 86.382 44.4921 86.3299 44.6898C86.2779 44.8772 86.179 45.1166 86.0333 45.408C85.8875 45.6891 85.6742 45.9753 85.3931 46.2668C85.1121 46.5478 84.7374 46.7872 84.269 46.985C83.811 47.1723 83.2385 47.266 82.5516 47.266ZM80.8966 42.1137H83.9099C83.8891 41.6245 83.7382 41.255 83.4571 41.0052C83.1865 40.7554 82.843 40.6304 82.4267 40.6304C82.0207 40.6304 81.672 40.7554 81.3806 41.0052C81.0995 41.255 80.9382 41.6245 80.8966 42.1137Z" fill="#060E42"/>
<path fill-rule="evenodd" clip-rule="evenodd" d="M44.4287 0C34.4876 0 26.4287 8.05888 26.4287 18C26.4287 20.5251 26.9487 22.9288 27.8874 25.1099H45.1993L53.0119 10.1438L60.97 25.1099C61.9087 22.9288 62.4287 20.5251 62.4287 18C62.4287 8.05888 54.3698 0 44.4287 0ZM35.0223 11.9515H41.1108L38.7218 16.6511H32.6333L35.0223 11.9515ZM43.022 11.9515H49.1105L46.7215 16.6511H40.633L43.022 11.9515ZM31.8807 18.147H37.9692L35.5802 22.8465H29.4917L31.8807 18.147ZM43.5799 22.8465L45.9688 18.147H39.8804L37.4914 22.8465H43.5799Z" fill="url(#paint0_linear_0_969)"/>
<defs>
<linearGradient id="paint0_linear_0_969" x1="26.9152" y1="3.56574" x2="60.8894" y2="4.52151" gradientUnits="userSpaceOnUse">
<stop stop-color="#FE7804"/>
<stop offset="1" stop-color="#FE4004"/>
</linearGradient>
</defs>
</svg>
